<?xml version="1.0" standalone="no"?>
<!DOCTYPE svg PUBLIC "-//W3C//DTD SVG 20010904//EN"
 "http://www.w3.org/TR/2001/REC-SVG-20010904/DTD/svg10.dtd">
<svg version="1.0" xmlns="http://www.w3.org/2000/svg"
 width="260.000000pt" height="260.000000pt" viewBox="0 0 260.000000 260.000000"
 preserveAspectRatio="xMidYMid meet">
<metadata>
Created by potrace 1.11, written by Peter Selinger 2001-2013
</metadata>
<g transform="translate(0.000000,260.000000) scale(0.100000,-0.100000)"
fill="#000000" stroke="none">
<path d="M0 1300 l0 -1300 1300 0 1300 0 0 1300 0 1300 -1300 0 -1300 0 0
-1300z m1780 0 l0 -1150 -500 0 -500 0 0 1150 0 1150 500 0 500 0 0 -1150z
m528 609 l67 -34 3 -158 c1 -86 0 -157 -3 -157 -3 0 -33 28 -68 63 -48 49 -73
66 -110 77 -101 28 -167 -23 -167 -128 0 -47 4 -58 29 -81 16 -15 60 -39 97
-54 129 -52 194 -115 229 -223 27 -82 27 -282 1 -372 -24 -81 -81 -169 -132
-204 -103 -71 -248 -60 -377 29 l-37 26 2 155 c2 93 7 156 13 158 6 1 28 -21
50 -49 87 -112 217 -151 287 -88 31 27 33 34 33 94 0 83 -12 97 -132 153 -50
23 -110 59 -132 79 -75 68 -111 181 -111 345 0 185 75 336 194 392 66 31 177
21 264 -23z m-1721 -5 c93 -75 128 -178 127 -374 -1 -195 -35 -313 -115 -405
-46 -52 -64 -59 -164 -65 l-90 -5 -3 -212 -2 -213 -85 0 -85 0 0 656 0 655
189 -3 189 -3 39 -31z"/>
<path d="M805 1893 c4 -23 86 -628 153 -1138 l18 -130 94 0 95 0 55 403 c31
234 58 396 62 385 6 -16 108 -750 108 -781 0 -10 23 -12 97 -10 l97 3 18 130
c63 477 149 1114 153 1138 l5 27 -88 0 -88 0 -38 -332 c-52 -453 -62 -525 -69
-508 -3 8 -24 161 -46 340 -23 179 -46 364 -52 413 l-12 87 -83 0 c-97 0 -86
17 -109 -160 -38 -289 -95 -704 -98 -706 -2 -2 -22 173 -46 389 -23 215 -45
411 -48 435 l-6 42 -88 0 -88 0 4 -27z"/>
<path d="M344 1677 c-2 -7 -3 -91 -2 -187 l3 -175 57 0 c87 1 120 40 133 161
9 78 -14 164 -51 193 -31 25 -131 30 -140 8z"/>
</g>
</svg>
